<svg width="400" height="460.5" xmlns="http://www.w3.org/2000/svg">
 <!-- Created with Method Draw - http://github.com/duopixel/Method-Draw/ -->
 <g>
  <title>Layer 1</title>
  <polygon id="svg_1" points="387.4000244140625,336.8999938964844 201.9000244140625,444 16.29998779296875,336.8999938964844 16.29998779296875,122.5999984741211 201.9000244140625,15.399999618530273 387.4000244140625,122.5999984741211 " fill="#7a8186"/>
  <path id="svg_149" d="m239.9,358.2l2.6,-4.6c0.3,-0.6 1.1,-0.8 1.7,-0.5c0.6,0.3 0.8,1.1 0.5,1.7l-2.6,4.5c-0.9,1.6 -0.6,2.9 0.7,3.6c1.3,0.8 2.5,0.4 3.4,-1.1l2.6,-4.6c0.3,-0.6 1.1,-0.8 1.7,-0.5c0.6,0.3 0.8,1.1 0.5,1.7l-2.6,4.5c-1.7,2.9 -4.2,3.4 -6.8,1.9c-2.6,-1.3 -3.3,-3.7 -1.7,-6.6z" fill="#80b763"/>
  <circle id="svg_191" r="0.5" cy="231.4" cx="203.5" fill="none"/>
  <path id="svg_193" d="m202,236.7c2.9,0 5.3,-2.4 5.3,-5.3s-2.4,-5.3 -5.3,-5.3s-5.3,2.4 -5.3,5.3s2.4,5.3 5.3,5.3zm0,-5.8c0.3,0 0.5,0.2 0.5,0.5c0,0.3 -0.2,0.5 -0.5,0.5c-0.3,0 -0.5,-0.2 -0.5,-0.5c0,-0.3 0.2,-0.5 0.5,-0.5z" fill="#80b763"/>
  <path id="svg_194" d="m298.5,156.4c0,-1.3 -1.1,-2.4 -2.4,-2.4l-188.6,0c-1.3,0 -2.4,1.1 -2.4,2.4c0,1.3 1.1,2.4 2.4,2.4l188.6,0c1.3,0 2.4,-1.1 2.4,-2.4z" fill="#80b763"/>
  <path id="svg_195" d="m278.8,87.3l-75.9,-43.8c0,0 0,0 0,0c-0.1,-0.1 -0.2,-0.1 -0.3,-0.1c0,0 0,0 0,0c0,0 0,0 0,0c0,0 -0.1,0 -0.1,0c0,0 -0.1,0 -0.1,0c-0.1,0 -0.2,0 -0.3,0c0,0 0,0 -0.1,0c0,0 -0.1,0 -0.1,0c-0.1,0 -0.3,0 -0.4,0c0,0 0,0 0,0c0,0 0,0 0,0c0,0 0,0 0,0c-0.1,0 -0.2,0.1 -0.3,0.1c0,0 0,0 0,0l-74.7,43.1c-0.9,0.5 -1.2,1.6 -0.7,2.5c0.5,0.9 1.7,1.2 2.5,0.7l66.4,-38.3l-28.2,36c-0.6,0.8 -0.5,2 0.3,2.6c0.8,0.6 2,0.5 2.6,-0.3l30.8,-39.3l0,38.4c0,1 0.8,1.9 1.9,1.9s1.9,-0.8 1.9,-1.9l0,-38.4l30.8,39.3c0.4,0.5 0.9,0.7 1.5,0.7c0.4,0 0.8,-0.1 1.1,-0.4c0.8,-0.6 0.9,-1.8 0.3,-2.6l-28.2,-36l67.6,39c0.3,0.2 0.6,0.2 0.9,0.2c0.6,0 1.3,-0.3 1.6,-0.9c0.4,-0.8 0.1,-2 -0.8,-2.5z" fill="#80b763"/>
  <path id="svg_196" d="m278.3,370.2c-0.5,-0.9 -1.7,-1.2 -2.5,-0.7l-66.3,38.3l28.2,-36c0.6,-0.8 0.5,-2 -0.3,-2.6c-0.8,-0.6 -2,-0.5 -2.6,0.3l-30.8,39.3l0,-38.4c0,-1 -0.8,-1.9 -1.9,-1.9s-1.9,0.8 -1.9,1.9l0,38.4l-30.8,-39.3c-0.6,-0.8 -1.8,-0.9 -2.6,-0.3c-0.8,0.6 -0.9,1.8 -0.3,2.6l28.2,36l-67.6,-39c-0.9,-0.5 -2,-0.2 -2.5,0.7c-0.5,0.9 -0.2,2 0.7,2.5l75.9,43.8c0,0 0,0 0.1,0c0.1,0 0.1,0.1 0.2,0.1c0,0 0,0 0.1,0c0,0 0,0 0.1,0c0,0 0.1,0 0.1,0c0.1,0 0.3,0.1 0.4,0.1l0,0l0,0l0,0c0,0 0,0 0,0c0.2,0 0.3,0 0.4,-0.1c0,0 0.1,0 0.1,0c0,0 0.1,0 0.1,0c0.1,0 0.1,-0.1 0.2,-0.1c0,0 0,0 0.1,0l74.7,-43.1c0.7,-0.4 1,-1.6 0.5,-2.5z" fill="#80b763"/>
  <circle id="svg_197" r="2.3" cy="366.7" cx="283.3" fill="#80b763"/>
  <circle id="svg_198" r="2.3" cy="366.7" cx="119.8" fill="#80b763"/>
  <path id="svg_202" d="m391,117.5l-185.6,-107.1c-2.1,-1.2 -4.7,-1.2 -6.8,0l-185.6,107.1c-2.1,1.2 -3.4,3.5 -3.4,5.9l0,214.3c0,2.4 1.3,4.7 3.4,5.9l185.6,107.1c1.1,0.6 2.2,0.9 3.4,0.9s2.4,-0.3 3.4,-0.9l185.6,-107.1c2.1,-1.2 3.4,-3.5 3.4,-5.9l0,-214.3c0,-2.4 -1.3,-4.7 -3.4,-5.9zm-189,-93.4l178.8,103.2l0,30.3l-21.9,0c-1.3,0 -2.4,1.1 -2.4,2.4l0,7.1l-27.1,0l0,-55.2c0,-1.3 -1.1,-2.4 -2.4,-2.4l-253,0c-1.3,0 -2.4,1.1 -2.4,2.4l0,55.2l-27.1,0l0,-7.1c0,-1.3 -1.1,-2.4 -2.4,-2.4l-19.1,0l0,-30.3l179,-103.2zm160.3,257.8l16.1,0l0,11.8l-16.1,0l0,-11.8zm0,-4.8l0,-11.8l16.1,0l0,11.8l-16.1,0zm18.5,-53.8l-0.3,-0.5l0.3,0l0,0.5zm-3,-5.3l-2.6,-4.5l5.6,0l0,4.5l-3,0zm-2.6,-9.2l3,-5.3l2.6,0l0,5.3l-5.6,0zm5.6,-19.1l-11.8,20.3c0,0 0,0.1 0,0.1c-0.1,0.1 -0.1,0.3 -0.2,0.4c0,0 0,0.1 0,0.1c0,0.2 -0.1,0.4 -0.1,0.6s0,0.4 0.1,0.6c0,0 0,0.1 0,0.1c0,0.1 0.1,0.3 0.2,0.4c0,0 0,0.1 0,0.1l11.8,20.4l0,27.8l-20.8,0c-1.3,0 -2.4,1.1 -2.4,2.4l0,16.5l0,16.5c0,1.3 1.1,2.4 2.4,2.4l20.8,0l0,23.1l-30.3,0l0,-140.2l8.5,0l21.9,0l0,8.4l-0.1,0zm-355.3,13.9l3,5.3l-5.3,0l0,-5.3l2.3,0zm3.1,10l-2.6,4.4l-2.7,0l0,-4.5l5.3,0l0,0.1zm-5.3,9.2l0,0l0,0l0,0zm15.7,54.3l-13.7,0l0,-11.8l13.7,0l0,11.8zm0,4.8l0,11.8l-13.7,0l0,-11.8l13.7,0zm-15.7,16.5l18.1,0c1.3,0 2.4,-1.1 2.4,-2.4l0,-16.5l0,-16.5c0,-1.3 -1.1,-2.4 -2.4,-2.4l-18.1,0l0,-28.3l11.5,-19.9c0,0 0,-0.1 0,-0.1c0.1,-0.1 0.1,-0.3 0.2,-0.4c0,0 0,-0.1 0,-0.1c0,-0.2 0.1,-0.4 0.1,-0.6s0,-0.4 -0.1,-0.6c0,0 0,-0.1 0,-0.1c0,-0.1 -0.1,-0.3 -0.2,-0.4c0,0 0,-0.1 0,-0.1l-11.5,-19.9l0,-8.9l19.1,0l8.5,0l0,140.3l-27.6,0l0,-23.1zm16.7,-129l0,7.1l-16.7,0l0,-14.2l16.7,0l0,7.1zm13.2,7.1l-8.5,0l0,-4.7l27.1,0l0,144.2l0,5.5l-16.3,0l0,-142.6c0,-1.3 -1,-2.4 -2.3,-2.4zm271.5,-7.1l0,144.2l-3.2,0l0,-12.2c0,-1.3 -1.1,-2.4 -2.4,-2.4l-5.5,0l0,-12.2c0,-1.3 -1.1,-2.4 -2.4,-2.4l-5.5,0l0,-12.2c0,-1.3 -1.1,-2.4 -2.4,-2.4l-4.7,0l0,-88.7l4.7,0c1.3,0 2.4,-1.1 2.4,-2.4l0,-7.1l5.5,0c1.3,0 2.4,-1.1 2.4,-2.4l0,-26c0,-1.3 -1.1,-2.4 -2.4,-2.4l-217.3,0c-1.3,0 -2.4,1.1 -2.4,2.4l0,26c0,1.3 1.1,2.4 2.4,2.4l5.5,0l0,7.1c0,1.3 1.1,2.4 2.4,2.4l4.7,0l0,88.7l-4.7,0c-1.3,0 -2.4,1.1 -2.4,2.4l0,12.2l-5.5,0c-1.3,0 -2.4,1.1 -2.4,2.4l0,12.2l-9.2,0c-1.3,0 -2.4,1.1 -2.4,2.4l0,12.2l-3.4,0l0,-144.2l0,-55.2l248.2,0l0,55.2zm-215.9,7.1l-4.7,0l0,-4.7l32.3,0l0,4.7l-4.7,0c-1.3,0 -2.4,1.1 -2.4,2.4l0,91l-18.1,0l0,-91c0,-1.3 -1.1,-2.4 -2.4,-2.4zm-12.6,-9.4l0,-21.3l212.8,0l0,21.3l-5.5,0l-36.2,0l-128.5,0l-37,0l-5.6,0zm197.8,11.8l0,91l-17.3,0l0,-91c0,-1.3 -1.1,-2.4 -2.4,-2.4l-4.7,0l0,-4.7l31.5,0l0,4.7l-4.7,0c-1.3,0 -2.4,1.1 -2.4,2.4zm-69.1,69.3l14.6,0l-12.2,21.1l-2.4,0l0,-21.1zm17.4,-4.7l-17.3,0l0,-14l25.4,0l-8.1,14zm-17.4,-18.7l0,-15.5l16.4,0l9,15.5l-25.4,0zm0,-20.3l0,-19.5l2.4,0l11.2,19.5l-13.6,0zm-4.7,22.7l0,42.1l-34.7,0l0,-23.4l0,-18.7l0,-20.3l0,-21.9l34.7,0l0,42.2zm-39.4,-22.7l-13.3,0l11.2,-19.5l2.1,0l0,19.5zm-16.1,4.7l16.1,0l0,15.5l-25,0l8.9,-15.5zm16.1,20.3l0,14l-17,0l-8.1,-14l25.1,0zm0,18.7l0,21.1l-2.1,0l-12.2,-21.1l14.3,0zm75.7,-19.9c0,0 0,0 0,0c0.1,-0.2 0.2,-0.3 0.2,-0.5c0,0 0,-0.1 0,-0.1c0,-0.2 0.1,-0.4 0.1,-0.6s0,-0.4 -0.1,-0.6c0,0 0,-0.1 0,-0.1c0,-0.1 -0.1,-0.3 -0.2,-0.4c0,0 0,-0.1 0,-0.1l-25.7,-44.5c-0.4,-0.7 -1.2,-1.2 -2,-1.2l-6.2,0l-39.4,0l-5.8,0c-0.8,0 -1.6,0.5 -2,1.2l-25.8,44.6c0,0 0,0.1 0,0.1c-0.1,0.1 -0.1,0.3 -0.2,0.4c0,0 0,0.1 0,0.1c0,0.2 -0.1,0.4 -0.1,0.6s0,0.4 0.1,0.6c0,0 0,0.1 0,0.1c0,0.1 0.1,0.3 0.2,0.4c0,0 0,0.1 0,0.1l24,41.6l-39.6,0l0,-88.7l4.7,0c1.3,0 2.4,-1.1 2.4,-2.4l0,-7.1l123.7,0l0,7.1c0,1.3 1.1,2.4 2.4,2.4l4.7,0l0,88.7l-39.5,0l24.1,-41.7zm39.9,46.3l4.7,0l0,9.9l-197,0l0,-9.9l4.7,0l187.6,0zm7.1,14.6l5.5,0l0,9.9l-212.8,0l0,-9.9l5.5,0l201.8,0zm7.8,14.6l5.5,0l0,9.9l-232.1,0l0,-9.9l9.2,0l217.4,0zm-234.8,20.1l0,-5.5l5.8,0l236.9,0l5.5,0l0,5.5l0,4.3l-248.2,0l0,-4.3zm253,-7.9l0,-144.2l27.1,0l0,4.7l-8.5,0c-1.3,0 -2.4,1.1 -2.4,2.4l0,142.6l-16.3,0l0,-5.5l0.1,0zm31.8,-139.5l0,-7.1l0,-7.1l19.5,0l0,14.2l-19.5,0zm-159.3,260.5l-178.7,-103.2l0,-7.5l29.9,0l0,0l18.6,0l0,4.3c0,1.3 1.1,2.4 2.4,2.4l253,0c1.3,0 2.4,-1.1 2.4,-2.4l0,-4.3l18.6,0l0,0l32.7,0l0,7.5l-178.9,103.2z" fill="#80b763"/>
  <path id="svg_203" d="m135.1,134.6c0.8,0 1.4,-0.6 1.4,-1.4l0,-7.1l5.8,7.6c0.4,0.5 0.8,0.9 1.5,0.9l0.1,0c0.8,0 1.5,-0.6 1.5,-1.5l0,-10.5c0,-0.8 -0.6,-1.4 -1.4,-1.4c-0.8,0 -1.4,0.6 -1.4,1.4l0,6.8l-5.6,-7.4c-0.4,-0.5 -0.8,-0.9 -1.5,-0.9l-0.3,0c-0.8,0 -1.5,0.6 -1.5,1.5l0,10.5c0,0.9 0.6,1.5 1.4,1.5z" fill="#80b763"/>
  <path id="svg_204" d="m155,134.7c4.1,0 7.1,-3.1 7.1,-6.8l0,0c0,-3.8 -2.9,-6.8 -7,-6.8c-4.1,0 -7.1,3.1 -7.1,6.8l0,0c0,3.8 2.9,6.8 7,6.8zm-3.9,-6.8c0,-2.3 1.6,-4.1 4,-4.1c2.3,0 4,1.9 4,4.2l0,0c0,2.3 -1.6,4.1 -4,4.1c-2.4,-0.1 -4,-1.9 -4,-4.2l0,0z" fill="#80b763"/>
  <path id="svg_205" d="m166.1,134.5l3.7,0c4.2,0 7,-2.9 7,-6.6l0,0c0,-3.7 -2.9,-6.6 -7,-6.6l-3.7,0c-0.8,0 -1.5,0.6 -1.5,1.5l0,10.2c0.1,0.9 0.7,1.5 1.5,1.5zm1.5,-10.6l2.2,0c2.4,0 4,1.6 4,4l0,0c0,2.3 -1.6,4 -4,4l-2.2,0l0,-8z" fill="#80b763"/>
  <path id="svg_206" d="m180.9,134.5l7.4,0c0.7,0 1.3,-0.6 1.3,-1.3s-0.6,-1.3 -1.3,-1.3l-6,0l0,-2.8l5,0c0.7,0 1.3,-0.6 1.3,-1.3s-0.6,-1.3 -1.3,-1.3l-5,0l0,-2.7l5.9,0c0.7,0 1.3,-0.6 1.3,-1.3c0,-0.7 -0.6,-1.3 -1.3,-1.3l-7.3,0c-0.8,0 -1.5,0.6 -1.5,1.5l0,10.3c0.1,0.9 0.7,1.5 1.5,1.5z" fill="#80b763"/>
  <path id="svg_207" d="m191.9,133.1c1.5,1.1 3.2,1.6 5,1.6c2.9,0 4.9,-1.5 4.9,-4.1l0,0c0,-2.3 -1.5,-3.3 -4.2,-4c-2.3,-0.6 -2.9,-0.9 -2.9,-1.7l0,0c0,-0.6 0.6,-1.2 1.7,-1.2c0.9,0 1.8,0.3 2.8,0.9c0.2,0.1 0.5,0.2 0.7,0.2c0.8,0 1.4,-0.6 1.4,-1.3c0,-0.6 -0.3,-1 -0.6,-1.2c-1.2,-0.8 -2.6,-1.2 -4.2,-1.2c-2.7,0 -4.6,1.6 -4.6,4l0,0c0,2.6 1.7,3.4 4.4,4c2.2,0.6 2.7,0.9 2.7,1.7l0,0c0,0.8 -0.7,1.2 -1.9,1.2c-1.3,0 -2.4,-0.5 -3.4,-1.2c-0.2,-0.1 -0.5,-0.3 -0.8,-0.3c-0.8,0 -1.4,0.6 -1.4,1.3c-0.2,0.7 0.1,1.1 0.4,1.3z" fill="#80b763"/>
  <path id="svg_208" d="m210.4,134.7c2.1,0 3.5,-0.6 4.7,-1.7c0.3,-0.2 0.5,-0.6 0.5,-1c0,-0.7 -0.6,-1.3 -1.4,-1.3c-0.3,0 -0.6,0.1 -0.9,0.3c-0.8,0.7 -1.6,1 -2.9,1c-2.3,0 -3.8,-1.9 -3.8,-4.2l0,0c0,-2.3 1.6,-4.1 3.8,-4.1c1,0 1.9,0.3 2.7,0.9c0.2,0.1 0.5,0.3 0.9,0.3c0.8,0 1.4,-0.6 1.4,-1.4c0,-0.5 -0.3,-0.9 -0.6,-1.2c-1.1,-0.8 -2.4,-1.3 -4.4,-1.3c-4.1,0 -6.9,3.1 -6.9,6.8l0,0c0.2,3.9 3.1,6.9 6.9,6.9z" fill="#80b763"/>
  <path id="svg_209" d="m219.7,134.6c0.8,0 1.5,-0.6 1.5,-1.5l0,-4l5.4,0l0,4c0,0.8 0.6,1.5 1.5,1.5c0.8,0 1.5,-0.6 1.5,-1.5l0,-10.5c0,-0.8 -0.6,-1.5 -1.5,-1.5c-0.8,0 -1.5,0.6 -1.5,1.5l0,3.9l-5.4,0l0,-3.9c0,-0.8 -0.6,-1.5 -1.5,-1.5c-0.8,0 -1.5,0.6 -1.5,1.5l0,10.5c0,0.9 0.6,1.5 1.5,1.5z" fill="#80b763"/>
  <path id="svg_210" d="m239,134.7c4.1,0 7,-3.1 7,-6.8l0,0c0,-3.8 -2.9,-6.8 -7,-6.8c-4.1,0 -7.1,3.1 -7.1,6.8l0,0c0.1,3.8 3,6.8 7.1,6.8zm-4,-6.8c0,-2.3 1.6,-4.1 4,-4.1c2.3,0 4,1.9 4,4.2l0,0c0,2.3 -1.6,4.1 -4,4.1c-2.3,-0.1 -4,-1.9 -4,-4.2l0,0z" fill="#80b763"/>
  <path id="svg_211" d="m255.1,134.7c4.1,0 7.1,-3.1 7.1,-6.8l0,0c0,-3.8 -2.9,-6.8 -7,-6.8c-4.1,0 -7.1,3.1 -7.1,6.8l0,0c0,3.8 2.9,6.8 7,6.8zm-4,-6.8c0,-2.3 1.6,-4.1 4,-4.1c2.3,0 4,1.9 4,4.2l0,0c0,2.3 -1.6,4.1 -4,4.1c-2.3,-0.1 -4,-1.9 -4,-4.2l0,0z" fill="#80b763"/>
  <path id="svg_212" d="m266.2,134.5l6.8,0c0.7,0 1.3,-0.6 1.3,-1.3c0,-0.7 -0.6,-1.3 -1.3,-1.3l-5.4,0l0,-9.2c0,-0.8 -0.6,-1.5 -1.5,-1.5c-0.8,0 -1.5,0.6 -1.5,1.5l0,10.3c0.1,0.9 0.8,1.5 1.6,1.5z" fill="#80b763"/>
  <path id="svg_366" d="m153.5,358.7c-0.3,-0.6 -0.1,-1.3 0.5,-1.7l3.4,-1.9c1.2,-0.7 2.4,-0.9 3.4,-0.6c0.9,0.2 1.6,0.8 2.1,1.7l0,0c0.9,1.5 0.7,2.9 -0.2,4.1l2.5,0.9c0.4,0.1 0.6,0.3 0.8,0.6c0.3,0.6 0.1,1.3 -0.4,1.6c-0.5,0.3 -0.9,0.2 -1.4,0.1l-3.6,-1.4l-1.7,1l1.2,2.1c0.3,0.6 0.1,1.3 -0.5,1.7c-0.6,0.3 -1.3,0.1 -1.7,-0.5l-4.4,-7.7zm6.4,1.1c1,-0.6 1.3,-1.5 0.8,-2.3l0,0c-0.5,-0.9 -1.4,-1 -2.5,-0.4l-2.1,1.2l1.6,2.8l2.2,-1.3z" fill="#80b763"/>
  <path transform="rotate(30 201.87014770507827,354.7970581054687) " stroke="null" id="svg_5" d="m196,352.8c-0.3,-0.6 -0.1,-1.3 0.5,-1.7l2.7,-1.6c3,-1.8 6.4,-0.9 7.9,1.8l0,0c1.6,2.7 0.7,6.1 -2.4,7.8l-2.7,1.6c-0.6,0.3 -1.3,0.1 -1.7,-0.5l-4.3,-7.4zm7.6,4.5c1.7,-1 2.2,-2.9 1.3,-4.6l0,0c-1,-1.7 -2.9,-2.2 -4.6,-1.2l-1.6,1l3.4,5.8l1.5,-1z" fill="#80b763"/>
 </g>
</svg>